<svg width="70" height="70" viewBox="0 0 70 70" fill="none" xmlns="http://www.w3.org/2000/svg">
<mask id="mask0_80_105" style="mask-type:alpha" maskUnits="userSpaceOnUse" x="0" y="0" width="70" height="70">
<rect width="70" height="70" fill="#D9D9D9"/>
</mask>
<g mask="url(#mask0_80_105)">
<path d="M16.3784 58.334C15.0732 58.334 13.9614 57.8751 13.0432 56.9573C12.1254 56.0391 11.6665 54.9273 11.6665 53.6221V16.3792C11.6665 15.074 12.1254 13.9622 13.0432 13.044C13.9614 12.1262 15.0732 11.6673 16.3784 11.6673H30.0867C29.8208 10.1788 30.1769 8.83451 31.1549 7.6343C32.1325 6.43409 33.4141 5.83398 34.9998 5.83398C36.6225 5.83398 37.9228 6.43409 38.9009 7.6343C39.8789 8.83451 40.2163 10.1788 39.913 11.6673H53.6213C54.9265 11.6673 56.0382 12.1262 56.9565 13.044C57.8743 13.9622 58.3332 15.074 58.3332 16.3792V53.6221C58.3332 54.9273 57.8743 56.0391 56.9565 56.9573C56.0382 57.8751 54.9265 58.334 53.6213 58.334H16.3784ZM16.3784 55.4173H53.6213C54.0705 55.4173 54.482 55.2304 54.8558 54.8566C55.2296 54.4828 55.4165 54.0713 55.4165 53.6221V16.3792C55.4165 15.93 55.2296 15.5185 54.8558 15.1447C54.482 14.7709 54.0705 14.584 53.6213 14.584H16.3784C15.9292 14.584 15.5177 14.7709 15.1439 15.1447C14.7701 15.5185 14.5832 15.93 14.5832 16.3792V53.6221C14.5832 54.0713 14.7701 54.4828 15.1439 54.8566C15.5177 55.2304 15.9292 55.4173 16.3784 55.4173ZM34.9998 12.9572C35.6318 12.9572 36.1544 12.7506 36.5675 12.3374C36.9807 11.9242 37.1873 11.4017 37.1873 10.7697C37.1873 10.1378 36.9807 9.6152 36.5675 9.20201C36.1544 8.78881 35.6318 8.58221 34.9998 8.58221C34.3679 8.58221 33.8453 8.78881 33.4321 9.20201C33.0189 9.6152 32.8123 10.1378 32.8123 10.7697C32.8123 11.4017 33.0189 11.9242 33.4321 12.3374C33.8453 12.7506 34.3679 12.9572 34.9998 12.9572Z" fill="#1C1B1F"/>
</g>
<mask id="mask1_80_105" style="mask-type:alpha" maskUnits="userSpaceOnUse" x="17" y="17" width="34" height="34">
<rect x="17" y="17" width="34" height="34" fill="#D9D9D9"/>
</mask>
<g mask="url(#mask1_80_105)">
<path d="M29.9675 42.0092L21.958 33.9997L29.9675 25.9902L31.4607 27.483L26.0065 32.9372H43.9163V27.2705H46.0413V35.0622H26.0065L31.4607 40.5164L29.9675 42.0092Z" fill="#1C1B1F"/>
</g>
</svg>
