<svg width="70" height="70" viewBox="0 0 70 70" fill="none" xmlns="http://www.w3.org/2000/svg">
<mask id="mask0_1_546" style="mask-type:alpha" maskUnits="userSpaceOnUse" x="0" y="0" width="70" height="70">
<rect width="70" height="70" fill="#D9D9D9"/>
</mask>
<g mask="url(#mask0_1_546)">
<path d="M14.5832 22.772V53.6208C14.5832 54.1443 14.7514 54.5746 15.0878 54.9114C15.4246 55.2478 15.8548 55.416 16.3784 55.416H53.6213C54.1448 55.416 54.575 55.2478 54.9119 54.9114C55.2483 54.5746 55.4165 54.1443 55.4165 53.6208V22.772H43.7498V42.5717L34.9998 38.1967L26.2498 42.5717V22.772H14.5832ZM16.3784 58.3327C15.0732 58.3327 13.9614 57.8738 13.0432 56.956C12.1254 56.0378 11.6665 54.926 11.6665 53.6208V21.835C11.6665 21.2667 11.7572 20.732 11.9385 20.2308C12.1198 19.7296 12.3918 19.2678 12.7544 18.8454L17.2979 13.3883C17.7203 12.8196 18.2484 12.3903 18.8823 12.1006C19.5162 11.8109 20.1958 11.666 20.9211 11.666H48.9663C49.6916 11.666 50.3804 11.8109 51.0328 12.1006C51.6856 12.3903 52.2232 12.8196 52.6457 13.3883L57.2453 18.9577C57.6079 19.3801 57.8799 19.8512 58.0612 20.3708C58.2425 20.8909 58.3332 21.4351 58.3332 22.0034V53.6208C58.3332 54.926 57.8743 56.0378 56.9565 56.956C56.0382 57.8738 54.9265 58.3327 53.6213 58.3327H16.3784ZM15.6937 19.8553H54.2498L50.3685 15.1996C50.1813 15.0129 49.9662 14.8634 49.7232 14.7511C49.4801 14.6388 49.2278 14.5827 48.9663 14.5827H20.9772C20.7157 14.5827 20.4634 14.6388 20.2204 14.7511C19.9773 14.8634 19.7622 15.0129 19.575 15.1996L15.6937 19.8553ZM29.1665 22.772V37.8037L34.9998 34.8871L40.8332 37.8037V22.772H29.1665Z" fill="#1C1B1F"/>
</g>
</svg>
