<svg width="70" height="70" viewBox="0 0 70 70" fill="none" xmlns="http://www.w3.org/2000/svg">
<mask id="mask0_1_537" style="mask-type:alpha" maskUnits="userSpaceOnUse" x="0" y="0" width="70" height="70">
<rect width="70" height="70" fill="#D9D9D9"/>
</mask>
<g mask="url(#mask0_1_537)">
<path d="M61.2499 19.2949V50.7045C61.2499 52.0471 60.8003 53.1681 59.901 54.0674C59.0016 54.9667 57.8807 55.4163 56.538 55.4163H13.4618C12.1191 55.4163 10.9982 54.9667 10.0989 54.0674C9.19956 53.1681 8.74991 52.0471 8.74991 50.7045V19.2949C8.74991 17.9522 9.19956 16.8313 10.0989 15.932C10.9982 15.0327 12.1191 14.583 13.4618 14.583H56.538C57.8807 14.583 59.0016 15.0327 59.901 15.932C60.8003 16.8313 61.2499 17.9522 61.2499 19.2949ZM11.6666 25.6889H58.3332V19.2949C58.3332 18.8457 58.1463 18.4342 57.7725 18.0604C57.3987 17.6866 56.9872 17.4997 56.538 17.4997H13.4618C13.0126 17.4997 12.6011 17.6866 12.2273 18.0604C11.8535 18.4342 11.6666 18.8457 11.6666 19.2949V25.6889ZM11.6666 32.6437V50.7045C11.6666 51.1536 11.8535 51.5651 12.2273 51.9389C12.6011 52.3128 13.0126 52.4997 13.4618 52.4997H56.538C56.9872 52.4997 57.3987 52.3128 57.7725 51.9389C58.1463 51.5651 58.3332 51.1536 58.3332 50.7045V32.6437H11.6666Z" fill="#1C1B1F"/>
</g>
</svg>
