<svg width="21" height="21" viewBox="0 0 21 21" fill="none" xmlns="http://www.w3.org/2000/svg">
<mask id="mask0_1_279" style="mask-type:alpha" maskUnits="userSpaceOnUse" x="0" y="0" width="21" height="21">
<rect width="20.882" height="20.882" fill="#D9D9D9"/>
</mask>
<g mask="url(#mask0_1_279)">
<path d="M4.2806 16.5313C3.68072 16.5313 3.16972 16.3193 2.7476 15.8954C2.32549 15.4716 2.11443 14.9584 2.11443 14.3561H0.181556L0.37153 13.486H2.33603C2.49272 13.0989 2.74544 12.7846 3.09419 12.543C3.44295 12.3016 3.83842 12.1808 4.2806 12.1808C4.72279 12.1808 5.11826 12.3016 5.46702 12.543C5.81577 12.7846 6.06849 13.0989 6.22518 13.486H10.2259L12.1289 5.22018H2.64103L2.66096 5.13491C2.70313 4.90724 2.81281 4.71952 2.99 4.57175C3.16719 4.42398 3.3763 4.3501 3.61732 4.3501H13.212L12.5103 7.39539H14.3117L16.6611 10.5412L15.9112 14.3561H14.9115C14.9115 14.9584 14.7005 15.4716 14.2784 15.8954C13.8562 16.3193 13.3452 16.5313 12.7454 16.5313C12.1455 16.5313 11.6345 16.3193 11.2124 15.8954C10.7902 15.4716 10.5792 14.9584 10.5792 14.3561H6.44678C6.44678 14.9584 6.23572 15.4716 5.8136 15.8954C5.39149 16.3193 4.88049 16.5313 4.2806 16.5313ZM11.5472 11.5283H15.5781L15.7314 10.7535L13.8785 8.26547H12.3037L11.5472 11.5283ZM11.919 6.092L12.1289 5.22018L10.2259 13.486L10.4358 12.6141L11.1225 9.57234L11.919 6.092ZM-0.768311 11.309L-0.551693 10.4389H3.33074L3.11412 11.309H-0.768311ZM0.964628 8.26721L1.18124 7.39713H5.93014L5.71353 8.26721H0.964628ZM4.2806 15.6612C4.63716 15.6612 4.94295 15.5332 5.19798 15.2773C5.45286 15.0212 5.58031 14.7141 5.58031 14.3561C5.58031 13.998 5.45286 13.6909 5.19798 13.4349C4.94295 13.1789 4.63716 13.0509 4.2806 13.0509C3.92405 13.0509 3.61826 13.1789 3.36323 13.4349C3.10834 13.6909 2.9809 13.998 2.9809 14.3561C2.9809 14.7141 3.10834 15.0212 3.36323 15.2773C3.61826 15.5332 3.92405 15.6612 4.2806 15.6612ZM12.7454 15.6612C13.1019 15.6612 13.4077 15.5332 13.6627 15.2773C13.9176 15.0212 14.0451 14.7141 14.0451 14.3561C14.0451 13.998 13.9176 13.6909 13.6627 13.4349C13.4077 13.1789 13.1019 13.0509 12.7454 13.0509C12.3888 13.0509 12.083 13.1789 11.828 13.4349C11.5731 13.6909 11.4457 13.998 11.4457 14.3561C11.4457 14.7141 11.5731 15.0212 11.828 15.2773C12.083 15.5332 12.3888 15.6612 12.7454 15.6612Z" fill="white"/>
</g>
</svg>
