<svg width="14" height="11" viewBox="0 0 14 11" fill="none" xmlns="http://www.w3.org/2000/svg">
<path d="M0 2C0 0.895431 0.895431 0 2 0H12C13.1046 0 14 0.895431 14 2V9C14 10.1046 13.1046 11 12 11H2C0.89543 11 0 10.1046 0 9V2Z" fill="#FF3636"/>
<mask id="mask0_52_104" style="mask-type:alpha" maskUnits="userSpaceOnUse" x="4" y="2" width="8" height="8">
<rect x="4" y="2" width="8" height="8" fill="#D9D9D9"/>
</mask>
<g mask="url(#mask0_52_104)">
<path d="M5.80043 5.33333C5.47955 5.33333 5.20569 5.21944 4.97886 4.99167C4.75203 4.76389 4.63861 4.48889 4.63861 4.16667C4.63861 3.84444 4.75203 3.56944 4.97886 3.34167C5.20569 3.11389 5.47955 3 5.80043 3C6.12132 3 6.39517 3.11389 6.622 3.34167C6.84884 3.56944 6.96225 3.84444 6.96225 4.16667C6.96225 4.48889 6.84884 4.76389 6.622 4.99167C6.39517 5.21944 6.12132 5.33333 5.80043 5.33333ZM5.80043 4.66667C5.93874 4.66667 6.05631 4.61806 6.15313 4.52083C6.24995 4.42361 6.29835 4.30556 6.29835 4.16667C6.29835 4.02778 6.24995 3.90972 6.15313 3.8125C6.05631 3.71528 5.93874 3.66667 5.80043 3.66667C5.66212 3.66667 5.54455 3.71528 5.44774 3.8125C5.35092 3.90972 5.30251 4.02778 5.30251 4.16667C5.30251 4.30556 5.35092 4.42361 5.44774 4.52083C5.54455 4.61806 5.66212 4.66667 5.80043 4.66667ZM8.78797 8.33333C8.46709 8.33333 8.19323 8.21944 7.9664 7.99167C7.73957 7.76389 7.62615 7.48889 7.62615 7.16667C7.62615 6.84444 7.73957 6.56944 7.9664 6.34167C8.19323 6.11389 8.46709 6 8.78797 6C9.10885 6 9.38271 6.11389 9.60954 6.34167C9.83637 6.56944 9.94979 6.84444 9.94979 7.16667C9.94979 7.48889 9.83637 7.76389 9.60954 7.99167C9.38271 8.21944 9.10885 8.33333 8.78797 8.33333ZM8.78797 7.66667C8.92628 7.66667 9.04385 7.61805 9.14067 7.52083C9.23748 7.42361 9.28589 7.30555 9.28589 7.16667C9.28589 7.02778 9.23748 6.90972 9.14067 6.8125C9.04385 6.71528 8.92628 6.66667 8.78797 6.66667C8.64966 6.66667 8.53209 6.71528 8.43527 6.8125C8.33846 6.90972 8.29005 7.02778 8.29005 7.16667C8.29005 7.30555 8.33846 7.42361 8.43527 7.52083C8.53209 7.61805 8.64966 7.66667 8.78797 7.66667ZM5.10334 8.33333L4.63861 7.86667L9.48506 3L9.94979 3.46667L5.10334 8.33333Z" fill="white"/>
</g>
</svg>
