<svg width="78" height="78" viewBox="0 0 78 78" fill="none" xmlns="http://www.w3.org/2000/svg">
<path d="M35.7416 77.3335C34.7833 77.3335 33.825 77.1419 32.8666 76.7585C31.9083 76.3752 31.0458 75.8002 30.2791 75.0335L2.87079 47.6252C2.10413 46.8585 1.5451 46.012 1.19371 45.0856C0.84232 44.1592 0.666626 43.2169 0.666626 42.2585C0.666626 41.3002 0.84232 40.3419 1.19371 39.3835C1.5451 38.4252 2.10413 37.5627 2.87079 36.796L36.6041 2.96687C37.3069 2.26409 38.1375 1.70506 39.0958 1.28979C40.0541 0.874509 41.0444 0.66687 42.0666 0.66687H69.5708C71.6791 0.66687 73.484 1.41756 74.9854 2.91895C76.4868 4.42034 77.2375 6.2252 77.2375 8.33354V35.8377C77.2375 36.8599 77.0458 37.8342 76.6625 38.7606C76.2791 39.687 75.7361 40.5016 75.0333 41.2044L41.2041 75.0335C40.4375 75.8002 39.575 76.3752 38.6166 76.7585C37.6583 77.1419 36.7 77.3335 35.7416 77.3335ZM35.7416 69.6669L69.5708 35.7419V8.33354H42.1625L8.33329 42.2585L35.7416 69.6669ZM59.9875 23.6669C61.5847 23.6669 62.9423 23.1078 64.0604 21.9898C65.1784 20.8717 65.7375 19.5141 65.7375 17.9169C65.7375 16.3196 65.1784 14.962 64.0604 13.844C62.9423 12.7259 61.5847 12.1669 59.9875 12.1669C58.3902 12.1669 57.0326 12.7259 55.9145 13.844C54.7965 14.962 54.2375 16.3196 54.2375 17.9169C54.2375 19.5141 54.7965 20.8717 55.9145 21.9898C57.0326 23.1078 58.3902 23.6669 59.9875 23.6669Z" fill="#FF3636" fill-opacity="0.27"/>
</svg>
