<svg width="92" height="92" viewBox="0 0 92 92" fill="none" xmlns="http://www.w3.org/2000/svg">
<mask id="mask0_33_35" style="mask-type:alpha" maskUnits="userSpaceOnUse" x="0" y="0" width="92" height="92">
<rect width="92" height="92" fill="#D9D9D9"/>
</mask>
<g mask="url(#mask0_33_35)">
<path d="M42.7416 84.3335C41.7833 84.3335 40.825 84.1418 39.8666 83.7585C38.9083 83.3751 38.0458 82.8001 37.2791 82.0335L9.87079 54.6251C9.10413 53.8585 8.5451 53.012 8.19371 52.0856C7.84232 51.1592 7.66663 50.2168 7.66663 49.2585C7.66663 48.3001 7.84232 47.3418 8.19371 46.3835C8.5451 45.4251 9.10413 44.5626 9.87079 43.796L43.6041 9.96681C44.3069 9.26403 45.1375 8.705 46.0958 8.28973C47.0541 7.87445 48.0444 7.66681 49.0666 7.66681H76.5708C78.6791 7.66681 80.484 8.4175 81.9854 9.91889C83.4868 11.4203 84.2375 13.2251 84.2375 15.3335V42.8376C84.2375 43.8599 84.0458 44.8342 83.6625 45.7606C83.2791 46.687 82.7361 47.5015 82.0333 48.2043L48.2041 82.0335C47.4375 82.8001 46.575 83.3751 45.6166 83.7585C44.6583 84.1418 43.7 84.3335 42.7416 84.3335ZM42.7416 76.6668L76.5708 42.7418V15.3335H49.1625L15.3333 49.2585L42.7416 76.6668ZM66.9875 30.6668C68.5847 30.6668 69.9423 30.1078 71.0604 28.9897C72.1784 27.8717 72.7375 26.514 72.7375 24.9168C72.7375 23.3196 72.1784 21.9619 71.0604 20.8439C69.9423 19.7258 68.5847 19.1668 66.9875 19.1668C65.3902 19.1668 64.0326 19.7258 62.9145 20.8439C61.7965 21.9619 61.2375 23.3196 61.2375 24.9168C61.2375 26.514 61.7965 27.8717 62.9145 28.9897C64.0326 30.1078 65.3902 30.6668 66.9875 30.6668Z" fill="white" fill-opacity="0.54"/>
</g>
</svg>
