<svg width="70" height="70" viewBox="0 0 70 70" fill="none" xmlns="http://www.w3.org/2000/svg">
<mask id="mask0_1_543" style="mask-type:alpha" maskUnits="userSpaceOnUse" x="0" y="0" width="70" height="70">
<rect width="70" height="70" fill="#D9D9D9"/>
</mask>
<g mask="url(#mask0_1_543)">
<path d="M28.9477 38.7246L31.2191 31.1974L25.2399 26.8107H32.7117L34.9998 19.2048L37.2879 26.8107H44.7597L38.7638 31.1974L41.0351 38.7246L34.9998 34.0521L28.9477 38.7246ZM20.4165 62.596V43.3745C18.5692 41.5569 17.1352 39.4292 16.1144 36.9914C15.0935 34.553 14.5831 31.9448 14.5831 29.1667C14.5831 23.4753 16.5631 18.6497 20.5229 14.6898C24.4828 10.7299 29.3084 8.75 34.9998 8.75C40.6912 8.75 45.5168 10.7299 49.4767 14.6898C53.4365 18.6497 55.4165 23.4753 55.4165 29.1667C55.4165 31.9448 54.906 34.553 53.8852 36.9914C52.8644 39.4292 51.4304 41.5569 49.5831 43.3745V62.596L34.9998 58.221L20.4165 62.596ZM34.9998 46.6667C39.8609 46.6667 43.9929 44.9653 47.3956 41.5625C50.7984 38.1597 52.4998 34.0278 52.4998 29.1667C52.4998 24.3056 50.7984 20.1736 47.3956 16.7708C43.9929 13.3681 39.8609 11.6667 34.9998 11.6667C30.1387 11.6667 26.0067 13.3681 22.604 16.7708C19.2012 20.1736 17.4998 24.3056 17.4998 29.1667C17.4998 34.0278 19.2012 38.1597 22.604 41.5625C26.0067 44.9653 30.1387 46.6667 34.9998 46.6667ZM23.3331 58.4624L34.9998 55.1921L46.6665 58.4624V45.831C45.0399 47.0274 43.2328 47.9519 41.2451 48.6048C39.2579 49.2571 37.1761 49.5833 34.9998 49.5833C32.8235 49.5833 30.7417 49.2571 28.7545 48.6048C26.7668 47.9519 24.9597 47.0274 23.3331 45.831V58.4624Z" fill="#1C1B1F"/>
</g>
</svg>
